<svg width="60" height="60" viewBox="0 0 60 60" fill="none" xmlns="http://www.w3.org/2000/svg">
<path d="M37.5 7.5C38.7614 7.4996 39.9764 7.97602 40.9014 8.83374C41.8263 9.69147 42.3929 10.8671 42.4875 12.125L42.5 12.5C42.5001 13.1123 42.7249 13.7033 43.1318 14.1609C43.5387 14.6185 44.0994 14.9109 44.7075 14.9825L45 15H47.5C49.413 14.9999 51.2538 15.7308 52.6456 17.0432C54.0375 18.3556 54.8753 20.1503 54.9875 22.06L55 22.5V45C55.0001 46.913 54.2692 48.7538 52.9568 50.1456C51.6444 51.5375 49.8497 52.3753 47.94 52.4875L47.5 52.5H12.5C10.587 52.5001 8.74621 51.7692 7.35435 50.4568C5.96248 49.1444 5.12473 47.3497 5.0125 45.44L5 45V22.5C4.99989 20.587 5.73081 18.7462 7.04321 17.3543C8.3556 15.9625 10.1503 15.1247 12.06 15.0125L12.5 15H15C15.663 15 16.2989 14.7366 16.7678 14.2678C17.2366 13.7989 17.5 13.163 17.5 12.5C17.4996 11.2386 17.976 10.0236 18.8337 9.09863C19.6915 8.17368 20.8671 7.60711 22.125 7.5125L22.5 7.5H37.5ZM30 25C28.1415 24.9999 26.3491 25.6898 24.9703 26.936C23.5916 28.1822 22.7246 29.8959 22.5375 31.745L22.51 32.125L22.5 32.5L22.51 32.875C22.5834 34.3406 23.0851 35.7524 23.9529 36.9357C24.8208 38.119 26.0167 39.0216 27.3925 39.5319C28.7684 40.0422 30.2637 40.1377 31.6932 39.8065C33.1228 39.4753 34.4238 38.7321 35.4351 37.6688C36.4464 36.6055 37.1236 35.2689 37.3827 33.8246C37.6419 32.3802 37.4716 30.8916 36.8931 29.543C36.3146 28.1945 35.3531 27.0453 34.1279 26.2377C32.9026 25.4302 31.4674 24.9999 30 25Z" fill="#B3B3B3"/>
</svg>
