<svg width="24" height="24" viewBox="0 0 24 24" fill="none" xmlns="http://www.w3.org/2000/svg">
<path fill-rule="evenodd" clip-rule="evenodd" d="M15.7073 11.2931C15.8948 11.4807 16.0001 11.735 16.0001 12.0001C16.0001 12.2653 15.8948 12.5196 15.7073 12.7071L10.0503 18.3641C9.9581 18.4597 9.84775 18.5358 9.72575 18.5882C9.60374 18.6407 9.47252 18.6682 9.33975 18.6694C9.20697 18.6706 9.07529 18.6452 8.95239 18.595C8.82949 18.5447 8.71784 18.4704 8.62395 18.3765C8.53006 18.2826 8.4558 18.171 8.40552 18.0481C8.35524 17.9252 8.32994 17.7935 8.33109 17.6607C8.33225 17.528 8.35983 17.3967 8.41224 17.2747C8.46465 17.1527 8.54083 17.0424 8.63634 16.9501L13.5863 12.0001L8.63634 7.05015C8.45419 6.86154 8.35339 6.60894 8.35567 6.34675C8.35795 6.08455 8.46312 5.83374 8.64852 5.64833C8.83393 5.46292 9.08475 5.35775 9.34694 5.35547C9.60914 5.35319 9.86174 5.45399 10.0503 5.63615L15.7073 11.2931Z" fill="black"/>
</svg>
