<svg width="19" height="19" viewBox="0 0 19 19" fill="none" xmlns="http://www.w3.org/2000/svg">
<path d="M9.08331 11.5835C9.74635 11.5835 10.3822 11.3201 10.8511 10.8513C11.3199 10.3824 11.5833 9.74654 11.5833 9.0835C11.5833 8.42045 11.3199 7.78457 10.8511 7.31573C10.3822 6.84689 9.74635 6.5835 9.08331 6.5835C8.42027 6.5835 7.78439 6.84689 7.31555 7.31573C6.8467 7.78457 6.58331 8.42045 6.58331 9.0835C6.58331 9.74654 6.8467 10.3824 7.31555 10.8513C7.78439 11.3201 8.42027 11.5835 9.08331 11.5835Z" stroke="black" stroke-width="1.5" stroke-linecap="round" stroke-linejoin="round"/>
<path d="M15.435 7.74583L14.5208 5.5375L15.75 4.08333L14.0833 2.41667L12.6375 3.6525L10.3817 2.725L9.8625 0.75H8.23417L7.7075 2.75083L5.50333 3.68L4.08333 2.41667L2.41667 4.08333L3.6275 5.57417L2.7275 7.78833L0.75 8.25V9.91667L2.75083 10.4633L3.68 12.6667L2.41667 14.0833L4.08333 15.75L5.57583 14.5333L7.7475 15.4267L8.25 17.4167H9.91667L10.42 15.4275L12.6292 14.5125C12.9975 14.7767 14.0833 15.75 14.0833 15.75L15.75 14.0833L14.5133 12.625L15.4283 10.415L17.4167 9.89833V8.25L15.435 7.74583Z" stroke="black" stroke-width="1.5" stroke-linecap="round" stroke-linejoin="round"/>
</svg>
